<svg width="97" height="96" viewBox="0 0 97 96" fill="none" xmlns="http://www.w3.org/2000/svg">
<g id="Favicon">
<path id="Subtract" fill-rule="evenodd" clip-rule="evenodd" d="M96.7695 48C96.7695 74.5097 75.2792 96 48.7695 96C22.2599 96 0.769531 74.5097 0.769531 48C0.769531 21.4903 22.2599 0 48.7695 0C75.2792 0 96.7695 21.4903 96.7695 48ZM24.2797 38.1874C24.2797 8.16883 72.4949 8.16883 72.4949 38.1874V44.1933C72.4949 44.1933 60.8028 39.6816 50.3963 48.5959V28.2109C50.3963 24.2025 44.3694 24.2025 44.3694 28.2109V60.2782C44.3694 71.3481 35.3759 80.3203 24.2797 80.3203V38.1874ZM60.3048 49.0771C56.5312 50.0539 50.2805 54.9118 50.2805 55.5342V80.1958H72.3339V49.0771C72.3339 49.0771 65.3771 47.7654 60.3048 49.0771Z" fill="#6A6AC6"/>
</g>
</svg>
