<svg width="24" height="24" viewBox="0 0 24 24" fill="none" xmlns="http://www.w3.org/2000/svg">
<path fill-rule="evenodd" clip-rule="evenodd" d="M5 0C2.23858 0 0 2.23858 0 5V24H19C21.7614 24 24 21.7614 24 19V0H5ZM18.7016 6.89701C17.5297 6.78055 16.3577 6.6932 15.1786 6.62769V6.62041L15.0184 5.67415L15.0177 5.66988C14.9086 5.00023 14.7455 4 13.0458 4H11.1388C9.44275 4 9.28261 4.96082 9.16615 5.66687L9.01329 6.59858C8.33635 6.64225 7.65941 6.68592 6.98247 6.75143L5.49757 6.89701C5.19185 6.92613 4.97349 7.19545 5.0026 7.49388C5.03172 7.79232 5.29376 8.01069 5.59947 7.98157L7.08438 7.83599C10.8986 7.45749 14.7418 7.60307 18.5997 7.98885H18.6579C18.9345 7.98885 19.1747 7.77776 19.2038 7.49388C19.2256 7.19545 19.0073 6.92613 18.7016 6.89701ZM17.3621 9.01484C17.1874 8.83286 16.9472 8.73096 16.6997 8.73096H7.49922C7.25174 8.73096 7.00426 8.83286 6.83684 9.01484C6.66943 9.19681 6.5748 9.44429 6.58936 9.69905L7.04065 17.1672C7.12072 18.2736 7.22262 19.6566 9.76297 19.6566H14.436C16.9763 19.6566 17.0783 18.2809 17.1583 17.1672L17.6096 9.70633C17.6242 9.44429 17.5295 9.19681 17.3621 9.01484ZM13.3078 16.0099H10.8839C10.5855 16.0099 10.338 15.7624 10.338 15.464C10.338 15.1655 10.5855 14.918 10.8839 14.918H13.3078C13.6062 14.918 13.8537 15.1655 13.8537 15.464C13.8537 15.7624 13.6062 16.0099 13.3078 16.0099ZM13.9192 13.0983H10.2798C9.98134 13.0983 9.73385 12.8508 9.73385 12.5524C9.73385 12.254 9.98134 12.0065 10.2798 12.0065H13.9192C14.2176 12.0065 14.4651 12.254 14.4651 12.5524C14.4651 12.8508 14.2176 13.0983 13.9192 13.0983Z" fill="#358B98"/>
</svg>
