<svg width="24" height="24" viewBox="0 0 24 24" fill="none" xmlns="http://www.w3.org/2000/svg">
<g clip-path="url(#clip0_900_12013)">
<path d="M0 5C0 2.23858 2.23858 0 5 0H24V19C24 21.7614 21.7614 24 19 24H0V5Z" fill="#6A6AC6"/>
<path d="M4.99976 9.99433C4.99976 8.33748 6.3429 6.99433 7.99976 6.99433H19V10.8833H4.99976V9.99433Z" fill="white"/>
<rect x="9.6665" y="5.43874" width="1.55559" height="1.55559" fill="white"/>
<rect x="13.5554" y="5.43874" width="1.55559" height="1.55559" fill="white"/>
<path fill-rule="evenodd" clip-rule="evenodd" d="M4.99976 11.661H19V16.6611C19 17.7657 18.1046 18.6611 17 18.6611H4.99976V11.661ZM7.67891 13.3031C7.67891 12.8258 8.06583 12.4389 8.54312 12.4389C9.02042 12.4389 9.40734 12.8258 9.40734 13.3031C9.40734 13.7804 9.02042 14.1673 8.54312 14.1673C8.06583 14.1673 7.67891 13.7804 7.67891 13.3031ZM11.9999 12.4389C11.5226 12.4389 11.1357 12.8258 11.1357 13.3031C11.1357 13.7804 11.5226 14.1673 11.9999 14.1673C12.4772 14.1673 12.8642 13.7804 12.8642 13.3031C12.8642 12.8258 12.4772 12.4389 11.9999 12.4389ZM14.5926 13.3031C14.5926 12.8258 14.9795 12.4389 15.4568 12.4389C15.9341 12.4389 16.321 12.8258 16.321 13.3031C16.321 13.7804 15.9341 14.1673 15.4568 14.1673C14.9795 14.1673 14.5926 13.7804 14.5926 13.3031ZM8.54307 15.0315C8.06578 15.0315 7.67886 15.4185 7.67886 15.8957C7.67886 16.373 8.06578 16.76 8.54307 16.76C9.02037 16.76 9.40729 16.373 9.40729 15.8957C9.40729 15.4185 9.02037 15.0315 8.54307 15.0315ZM11.1357 15.8957C11.1357 15.4185 11.5226 15.0315 11.9999 15.0315C12.4772 15.0315 12.8642 15.4185 12.8642 15.8957C12.8642 16.373 12.4772 16.76 11.9999 16.76C11.5226 16.76 11.1357 16.373 11.1357 15.8957ZM15.4568 15.0315C14.9795 15.0315 14.5926 15.4185 14.5926 15.8957C14.5926 16.373 14.9795 16.76 15.4568 16.76C15.9341 16.76 16.321 16.373 16.321 15.8957C16.321 15.4185 15.9341 15.0315 15.4568 15.0315Z" fill="white"/>
</g>
<defs>
<clipPath id="clip0_900_12013">
<path d="M0 5C0 2.23858 2.23858 0 5 0H24V19C24 21.7614 21.7614 24 19 24H0V5Z" fill="white"/>
</clipPath>
</defs>
</svg>
