<svg width="32" height="32" viewBox="0 0 32 32" fill="none" xmlns="http://www.w3.org/2000/svg">
<path id="Vector 17 (Stroke)" fill-rule="evenodd" clip-rule="evenodd" d="M30.4978 1.50093C31.4352 2.43837 31.4352 3.95826 30.4978 4.8957L19.3947 15.9987L30.5 27.104C31.4375 28.0414 31.4375 29.5613 30.5 30.4988C29.5626 31.4362 28.0427 31.4362 27.1052 30.4988L16 19.3935L4.89486 30.4986C3.95743 31.436 2.43754 31.436 1.5001 30.4986C0.562659 29.5612 0.562659 28.0413 1.5001 27.1038L12.6052 15.9987L1.50026 4.89377C0.562826 3.95633 0.562825 2.43644 1.50026 1.499C2.43771 0.561562 3.95759 0.561565 4.89503 1.499L16 12.6039L27.103 1.50093C28.0404 0.563494 29.5603 0.563495 30.4978 1.50093Z" fill="white"/>
</svg>
