<svg width="32" height="32" viewBox="0 0 32 32" fill="none" xmlns="http://www.w3.org/2000/svg">
<g id="oi:check">
<path id="Vector" d="M27.3734 5.69724C27.1053 5.43474 26.9712 5.30349 26.8419 5.21183C26.1299 4.70704 25.1728 4.72226 24.4772 5.24943C24.3509 5.34516 24.2211 5.4806 23.9615 5.7515L22.88 6.88L13.4253 16.3347C13.167 16.593 13.0378 16.7222 12.9122 16.8138C12.2212 17.3179 11.2861 17.3267 10.5856 16.8358C10.4583 16.7465 10.3267 16.6198 10.0635 16.3664L8.52 14.88L7.33706 13.6971C7.07429 13.4343 6.94291 13.3029 6.81557 13.2104C6.1146 12.7011 5.1654 12.7011 4.46443 13.2104C4.33709 13.3029 4.20571 13.4343 3.94294 13.6971L1.69706 15.9429C1.43429 16.2057 1.30291 16.3371 1.21039 16.4644C0.701105 17.1654 0.701105 18.1146 1.21039 18.8156C1.30291 18.9429 1.43429 19.0743 1.69706 19.3371L2.88 20.52L8.88 26.52L9.94372 27.63C10.2058 27.9034 10.3368 28.0402 10.4641 28.1364C11.1652 28.6666 12.1303 28.6769 12.8425 28.1617C12.9718 28.0682 13.1057 27.9343 13.3735 27.6665L14.52 26.52L28.52 12.52L29.685 11.355C29.9502 11.0898 30.0829 10.9571 30.1759 10.8288C30.6881 10.1223 30.683 9.16523 30.1634 8.46412C30.0691 8.33681 29.9351 8.20558 29.667 7.94313L27.3734 5.69724Z" fill="#6A6AC6"/>
</g>
</svg>
