<svg width="24" height="24" viewBox="0 0 24 24" fill="none" xmlns="http://www.w3.org/2000/svg">
<path fill-rule="evenodd" clip-rule="evenodd" d="M5 0C2.23858 0 0 2.23858 0 5V24H19C21.7614 24 24 21.7614 24 19V0H5ZM6.56947 7.64958C11.4856 6.98481 12.6479 7.0026 17.4305 7.64966C17.7309 7.6903 18 7.45718 18 7.15404V7.07001C18 6.82119 17.817 6.61023 17.5707 6.57504L14.4412 6.12796C14.2787 6.10475 14.138 6.00334 14.0647 5.85659L13.7746 5.27639C13.6899 5.107 13.5167 5 13.3273 5H10.6727C10.4833 5 10.3101 5.107 10.2254 5.27639L9.93534 5.85659C9.86197 6.00334 9.72126 6.10475 9.55884 6.12796L6.42929 6.57504C6.18296 6.61023 6 6.82119 6 7.07001V7.15382C6 7.45704 6.26899 7.69021 6.56947 7.64958ZM8.4485 18H15.5515C15.8067 18 16.0209 17.8078 16.0486 17.5541L16.9476 9.29891C16.9768 9.03085 16.7873 8.78754 16.5201 8.75149C13.1354 8.29496 10.8646 8.29496 7.47989 8.75149C7.21267 8.78754 7.02316 9.03085 7.05236 9.29891L7.95144 17.5541C7.97907 17.8078 8.19331 18 8.4485 18ZM10.1553 11.5455H13.8447C14.2502 11.5455 14.5139 11.9722 14.3326 12.3348C14.2402 12.5196 14.0513 12.6364 13.8447 12.6364H10.1553C9.94869 12.6364 9.75982 12.5196 9.66742 12.3348C9.48608 11.9722 9.74981 11.5455 10.1553 11.5455ZM12.9033 13.7273H11.0967C10.7314 13.7273 10.4693 14.0795 10.5743 14.4295C10.6435 14.6602 10.8559 14.8182 11.0967 14.8182H12.9033C13.1441 14.8182 13.3565 14.6602 13.4257 14.4295C13.5307 14.0795 13.2686 13.7273 12.9033 13.7273Z" fill="#CB3F3F"/>
</svg>
