<svg width="24" height="24" viewBox="0 0 48 48" fill="none" xmlns="http://www.w3.org/2000/svg">
<g id="Icons template export">
<path d="M0 10C0 4.47715 4.47715 0 10 0H48V38C48 43.5229 43.5228 48 38 48H0V10Z" fill="#AAAAAA"/>
<path id="Vector" d="M30.7067 9.29377C30.6138 9.20065 30.5035 9.12677 30.382 9.07636C30.2605 9.02595 30.1303 9 29.9987 9C29.8672 9 29.737 9.02595 29.6155 9.07636C29.494 9.12677 29.3837 9.20065 29.2908 9.29377L9 29.5866V38.0001C9 38.2653 9.10535 38.5196 9.29288 38.7071C9.4804 38.8947 9.73474 39 9.99994 39H18.4134L38.7062 18.7092C38.7994 18.6163 38.8732 18.506 38.9236 18.3845C38.9741 18.263 39 18.1328 39 18.0013C39 17.8697 38.9741 17.7395 38.9236 17.618C38.8732 17.4965 38.7994 17.3862 38.7062 17.2933L30.7067 9.29377Z" fill="white"/>
</g>
</svg>
