<svg width="24" height="24" viewBox="0 0 24 24" fill="none" xmlns="http://www.w3.org/2000/svg">
<path fill-rule="evenodd" clip-rule="evenodd" d="M0 5C0 2.23858 2.23858 0 5 0H24V19C24 21.7614 21.7614 24 19 24H0V5ZM8.79289 18.5H5.5C5.22386 18.5 5 18.2761 5 18V14.7071C5 14.5745 5.05268 14.4473 5.14645 14.3536L11.6464 7.85355C11.8417 7.65829 12.1583 7.65829 12.3536 7.85355L15.6464 11.1464C15.8417 11.3417 15.8417 11.6583 15.6464 11.8536L13 14.5L9.14645 18.3536C9.05268 18.4473 8.9255 18.5 8.79289 18.5ZM13.3536 6.85355L16.6464 10.1464C16.8417 10.3417 17.1583 10.3417 17.3536 10.1464L18.1464 9.35355C18.3417 9.15829 18.3417 8.84171 18.1464 8.64645L14.8536 5.35355C14.6583 5.15829 14.3417 5.15829 14.1464 5.35355L13.3536 6.14645C13.1583 6.34171 13.1583 6.65829 13.3536 6.85355Z" fill="#358B98"/>
</svg>
