<svg width="230" height="97" viewBox="0 0 230 97" fill="none" xmlns="http://www.w3.org/2000/svg">
<path d="M158.241 64.1953C158.241 107.486 229.84 107.612 229.84 64.1953C229.84 56.424 229.84 69.288 229.84 58.2429H197.024C197.024 58.2429 197.024 74.8601 197.024 80.8126C197.024 86.7651 188.074 86.6989 188.074 80.8126C188.074 68.9077 188.074 31.4568 188.074 19.5518C188.074 13.5332 197.024 13.3778 197.024 19.5518V40.3855H229.84C229.84 30.9607 229.84 40.3193 229.84 34.433C229.84 -10.1443 158.241 -10.1443 158.241 34.433V64.1953Z" fill="#FDFDFA"/>
<path d="M153.986 95.8724L136.109 62.9089C134.266 59.5094 134.88 55.3096 137.618 52.5781L144.937 45.2764C153.887 36.3477 156.87 21.4666 150.903 12.5379C144.937 3.60917 136.882 0.632935 124.153 0.632935H82.3868V95.8724C95.5664 95.8724 106.253 85.2108 106.253 72.0625V18.4903C106.253 12.4717 115.203 12.5379 115.203 18.4903V95.8724H153.986Z" fill="#FDFDFA"/>
<path d="M0 33.433C0 -11.1443 71.5992 -11.1443 71.5992 33.433V42.3518C71.5992 42.3518 54.2364 35.6519 38.7829 48.8896V18.618C38.7829 12.6655 29.833 12.6655 29.833 18.618V66.2377C29.833 82.6764 16.4778 96 0 96V33.433Z" fill="#FDFDFA"/>
<path d="M38.6108 59.1927C38.6108 58.2685 47.893 51.0544 53.4968 49.6039C61.0291 47.656 71.3599 49.6039 71.3599 49.6039V95.8149H38.6108C38.6108 95.8149 38.6108 69.8212 38.6108 59.1927Z" fill="#FDFDFA"/>
</svg>
