<svg width="48" height="48" viewBox="0 0 48 48" fill="none" xmlns="http://www.w3.org/2000/svg">
<path d="M0 10C0 4.47715 4.47715 0 10 0H48V38C48 43.5229 43.5228 48 38 48H0V10Z" fill="#6A6AC6"/>
<path fill-rule="evenodd" clip-rule="evenodd" d="M27.6983 20.1621C28.8995 19.2046 29.6668 17.7454 29.6668 16.1107C29.6668 13.2269 27.279 10.8891 24.3335 10.8891C21.3879 10.8891 19.0001 13.2269 19.0001 16.1107C19.0001 17.6952 19.721 19.1149 20.8592 20.0725C17.5581 20.4627 15 23.2149 15 26.5521V35.6899H28.3333C30.9107 35.6899 33 33.6443 33 31.121V26.5521C33 23.4054 30.7255 20.7788 27.6983 20.1621Z" fill="white"/>
</svg>
