<svg width="96" height="96" viewBox="0 0 96 96" fill="none" xmlns="http://www.w3.org/2000/svg">
<path fill-rule="evenodd" clip-rule="evenodd" d="M96 48C96 74.5097 74.5097 96 48 96C21.4903 96 0 74.5097 0 48C0 21.4903 21.4903 0 48 0C74.5097 0 96 21.4903 96 48ZM23.5102 38.1874C23.5102 8.16883 71.7254 8.16883 71.7254 38.1874V44.1933C71.7254 44.1933 60.0332 39.6816 49.6268 48.5959V28.2109C49.6268 24.2025 43.5999 24.2025 43.5999 28.2109V60.2782C43.5999 71.3481 34.6064 80.3203 23.5102 80.3203V38.1874ZM59.5353 49.0771C55.7617 50.0539 49.511 54.9118 49.511 55.5342V80.1958H71.5643V49.0771C71.5643 49.0771 64.6075 47.7654 59.5353 49.0771Z" fill="#6A6AC6"/>
</svg>
