<svg width="13" height="12" viewBox="0 0 13 12" fill="none" xmlns="http://www.w3.org/2000/svg">
<path d="M8.8477 0C8.57615 0.0150856 8.30461 0.0452567 8.04816 0.13577C7.64085 0.286626 7.24862 0.51291 6.91674 0.844793C6.82125 0.905327 6.74059 0.986553 6.68072 1.08246C6.62085 1.17838 6.58332 1.28652 6.57088 1.3989C6.55845 1.51127 6.57143 1.62501 6.60888 1.73169C6.64633 1.83837 6.70728 1.93526 6.78723 2.01521C6.86718 2.09516 6.96407 2.15611 7.07075 2.19356C7.17743 2.23101 7.29117 2.24399 7.40354 2.23156C7.51592 2.21912 7.62406 2.18158 7.71997 2.12172C7.81589 2.06185 7.89711 1.98119 7.95765 1.8857C8.12359 1.71976 8.3197 1.62924 8.5309 1.55382C9.05889 1.37279 9.70757 1.44822 10.13 1.8857C10.7183 2.47404 10.7183 3.4546 10.13 4.05802L7.86713 6.32086C7.20337 6.98462 6.66029 7.04497 6.26806 7.02988C5.87584 7.0148 5.64955 6.83377 5.64955 6.83377C5.56238 6.78424 5.46632 6.75237 5.36683 6.73997C5.26735 6.72757 5.16639 6.73489 5.06974 6.7615C4.97308 6.78812 4.88261 6.83351 4.8035 6.89509C4.72438 6.95667 4.65817 7.03323 4.60865 7.1204C4.55912 7.20756 4.52725 7.30363 4.51485 7.40312C4.50245 7.5026 4.50976 7.60355 4.53638 7.70021C4.563 7.79687 4.60839 7.88734 4.66997 7.96645C4.73155 8.04556 4.8081 8.11177 4.89527 8.1613C4.89527 8.1613 5.40818 8.49318 6.16246 8.53844C6.91674 8.5837 7.97273 8.29707 8.89295 7.36176L11.1558 5.09893C12.3325 3.92225 12.3325 2.02147 11.1558 0.859878C10.7334 0.437482 10.2356 0.181027 9.69249 0.0603423C9.42095 0 9.11924 0 8.8477 0.0150856V0ZM5.83058 3.48477C5.0763 3.4546 4.03539 3.71105 3.14534 4.61619L0.882507 6.87903C-0.294169 8.0557 -0.294169 9.95648 0.882507 11.1181C1.7273 11.9629 2.93415 12.2042 3.99014 11.8271C4.39745 11.6762 4.78967 11.45 5.12156 11.1181C5.21705 11.0575 5.29771 10.9763 5.35757 10.8804C5.41744 10.7845 5.45498 10.6763 5.46741 10.564C5.47985 10.4516 5.46686 10.3379 5.42941 10.2312C5.39197 10.1245 5.33101 10.0276 5.25107 9.94766C5.17112 9.86771 5.07422 9.80676 4.96754 9.76931C4.86086 9.73186 4.74713 9.71888 4.63475 9.73131C4.52238 9.74375 4.41423 9.78128 4.31832 9.84115C4.22241 9.90102 4.14118 9.98168 4.08065 10.0772C3.91471 10.2431 3.7186 10.3336 3.5074 10.4091C2.9794 10.5901 2.33072 10.5147 1.90833 10.0772C1.31999 9.48883 1.31999 8.50827 1.90833 7.90485L4.17116 5.64201C4.77459 5.03859 5.30258 4.96316 5.72498 4.97824C6.14738 4.99333 6.434 5.11401 6.434 5.11401C6.52239 5.1803 6.62425 5.22637 6.7324 5.24895C6.84055 5.27153 6.95234 5.27007 7.05987 5.24469C7.16739 5.21931 7.26803 5.17061 7.35466 5.10205C7.4413 5.03349 7.51181 4.94673 7.56122 4.84791C7.61063 4.7491 7.63772 4.64063 7.64059 4.53019C7.64346 4.41974 7.62204 4.31002 7.57783 4.20877C7.53362 4.10752 7.46771 4.01721 7.38476 3.94424C7.3018 3.87127 7.20383 3.81742 7.09777 3.78648C7.09777 3.78648 6.58486 3.48477 5.83058 3.4546V3.48477Z" fill="#565656"/>
</svg>
