<svg width="24" height="24" viewBox="0 0 24 24" fill="none" xmlns="http://www.w3.org/2000/svg">
<g id="24 x 30">
<path d="M0 5C0 2.23858 2.23858 0 5 0H24V19C24 21.7614 21.7614 24 19 24H0V5Z" fill="#6A6AC6"/>
<path id="Union" fill-rule="evenodd" clip-rule="evenodd" d="M3 6.8C3 5.2536 4.28942 4 5.88 4H18.12C19.7106 4 21 5.2536 21 6.8V11H5.88C4.28942 11 3 9.7464 3 8.2V6.8ZM6.96 7.5C6.96 8.0799 6.47647 8.55 5.88 8.55C5.28353 8.55 4.8 8.0799 4.8 7.5C4.8 6.9201 5.28353 6.45 5.88 6.45C6.47647 6.45 6.96 6.9201 6.96 7.5ZM3 15.8C3 14.2536 4.28942 13 5.88 13H18.12C19.7106 13 21 14.2536 21 15.8V20H5.88C4.28942 20 3 18.7464 3 17.2V15.8ZM6.96 16.5C6.96 17.0799 6.47647 17.55 5.88 17.55C5.28353 17.55 4.8 17.0799 4.8 16.5C4.8 15.9201 5.28353 15.45 5.88 15.45C6.47647 15.45 6.96 15.9201 6.96 16.5Z" fill="white"/>
</g>
</svg>
