<svg width="48" height="48" viewBox="0 0 48 48" fill="none" xmlns="http://www.w3.org/2000/svg">
<path d="M0 10C0 4.47715 4.47715 0 10 0H48V38C48 43.5229 43.5228 48 38 48H0V10Z" fill="#6A6AC6"/>
<path fill-rule="evenodd" clip-rule="evenodd" d="M18.8252 11.5342C19.3778 10.6173 20.4135 10 21.6 10H26.4C27.5865 10 28.6222 10.6173 29.1748 11.5342C29.2141 11.531 29.2539 11.5294 29.2941 11.5294H31.9412C32.9941 11.5294 34.018 11.9106 34.7843 12.6102C35.5531 13.3122 36 14.2801 36 15.3057V32.2237C36 33.2493 35.5531 34.2172 34.7843 34.9192C34.018 35.6188 32.9941 36 31.9412 36H16.0588C15.0059 36 13.982 35.6188 13.2157 34.9192C12.4469 34.2172 12 33.2493 12 32.2237V15.3057C12 14.2801 12.4469 13.3122 13.2157 12.6102C13.982 11.9106 15.0059 11.5294 16.0588 11.5294H18.7059C18.7461 11.5294 18.7859 11.531 18.8252 11.5342ZM18.651 14.2484H16.0588C15.7077 14.2484 15.385 14.3764 15.1584 14.5833C14.9344 14.7879 14.8235 15.0494 14.8235 15.3057V32.2237C14.8235 32.48 14.9344 32.7416 15.1584 32.9461C15.385 33.153 15.7077 33.281 16.0588 33.281H31.9412C32.2923 33.281 32.615 33.153 32.8416 32.9461C33.0656 32.7416 33.1765 32.48 33.1765 32.2237V15.3057C33.1765 15.0494 33.0656 14.7879 32.8416 14.5833C32.615 14.3764 32.2923 14.2484 31.9412 14.2484H29.349C28.8635 15.3468 27.7259 16.1176 26.4 16.1176H21.6C20.2741 16.1176 19.1365 15.3468 18.651 14.2484ZM16.8 19.7118C16.8 18.5715 17.7671 17.6471 18.96 17.6471H29.04C30.2329 17.6471 31.2 18.5715 31.2 19.7118C31.2 20.8521 30.2329 21.7765 29.04 21.7765H18.96C17.7671 21.7765 16.8 20.8521 16.8 19.7118ZM16.8 24.5294C16.8 23.3891 17.7671 22.4647 18.96 22.4647H29.04C30.2329 22.4647 31.2 23.3891 31.2 24.5294C31.2 25.6697 30.2329 26.5941 29.04 26.5941H18.96C17.7671 26.5941 16.8 25.6697 16.8 24.5294ZM16.8 29.3471C16.8 28.2068 17.7671 27.2824 18.96 27.2824H29.04C30.2329 27.2824 31.2 28.2068 31.2 29.3471C31.2 30.4874 30.2329 31.4118 29.04 31.4118H18.96C17.7671 31.4118 16.8 30.4874 16.8 29.3471Z" fill="white"/>
</svg>
