<svg width="24" height="24" viewBox="0 0 24 24" fill="none" xmlns="http://www.w3.org/2000/svg">
<g clip-path="url(#clip0_1888_25695)">
<path fill-rule="evenodd" clip-rule="evenodd" d="M19.002 5.00095C19.4546 5.45358 19.4546 6.18743 19.002 6.64006L13.6411 12.001L19.0031 17.363C19.4557 17.8156 19.4557 18.5494 19.0031 19.0021C18.5505 19.4547 17.8166 19.4547 17.364 19.0021L12.002 13.6401L6.64006 19.002C6.18743 19.4546 5.45358 19.4546 5.00095 19.002C4.54832 18.5494 4.54832 17.8155 5.00095 17.3629L10.3629 12.001L5.00103 6.63913C4.5484 6.1865 4.5484 5.45265 5.00103 5.00002C5.45366 4.54739 6.18751 4.54739 6.64014 5.00002L12.002 10.3619L17.3629 5.00095C17.8155 4.54832 18.5494 4.54832 19.002 5.00095Z" fill="#6A6AC6"/>
<path fill-rule="evenodd" clip-rule="evenodd" d="M17.0083 4.3545C17.6562 3.70661 18.7066 3.70661 19.3545 4.3545C20.0024 5.00239 20.0024 6.05283 19.3545 6.70072L14.3471 11.7081L19.3556 16.7165C20.0035 17.3644 20.0035 18.4148 19.3556 19.0627C18.7077 19.7106 17.6573 19.7106 17.0094 19.0627L12.0009 14.0543L6.99256 19.0627C6.34467 19.7105 5.29424 19.7105 4.64635 19.0627C3.99846 18.4148 3.99846 17.3643 4.64635 16.7164L9.65472 11.7081L4.64643 6.69979C3.99854 6.0519 3.99854 5.00146 4.64643 4.35357C5.29432 3.70568 6.34475 3.70568 6.99264 4.35357L12.0009 9.36186L17.0083 4.3545ZM18.6474 5.06161C18.39 4.80425 17.9728 4.80425 17.7154 5.06161L12.3545 10.4225C12.1592 10.6178 11.8426 10.6178 11.6474 10.4225L6.28554 5.06068C6.02817 4.80331 5.6109 4.80331 5.35354 5.06068C5.09617 5.31804 5.09617 5.73531 5.35354 5.99268L10.7154 11.3545C10.9106 11.5498 10.9106 11.8664 10.7154 12.0616L5.35345 17.4236C5.09609 17.6809 5.09609 18.0982 5.35345 18.3556C5.61082 18.6129 6.02809 18.6129 6.28546 18.3556L11.6474 12.9936C11.8426 12.7984 12.1592 12.7984 12.3545 12.9936L17.7165 18.3556C17.9739 18.613 18.3911 18.613 18.6485 18.3556C18.9059 18.0983 18.9059 17.681 18.6485 17.4236L13.2865 12.0616C13.0912 11.8664 13.0912 11.5498 13.2865 11.3545L18.6474 5.99361C18.9048 5.73625 18.9048 5.31898 18.6474 5.06161Z" fill="#6A6AC6"/>
</g>
<defs>
<clipPath id="clip0_1888_25695">
<rect width="24" height="24" fill="white"/>
</clipPath>
</defs>
</svg>
