<svg width="24" height="24" viewBox="0 0 24 24" fill="none" xmlns="http://www.w3.org/2000/svg">
<g clip-path="url(#clip0_1888_25694)">
<path d="M0 5C0 2.23858 2.23858 0 5 0H24V19C24 21.7614 21.7614 24 19 24H0V5Z" fill="#6A6AC6"/>
<path fill-rule="evenodd" clip-rule="evenodd" d="M5 6.82759C5 6.37052 5.33028 6 5.7377 6H19.2623C19.6697 6 20 6.37052 20 6.82759C20 7.28465 19.6697 7.65517 19.2623 7.65517H5.7377C5.33028 7.65517 5 7.28465 5 6.82759ZM5 12C5 11.5429 5.33028 11.1724 5.7377 11.1724H12.5H19.2623C19.6697 11.1724 20 11.5429 20 12C20 12.4571 19.6697 12.8276 19.2623 12.8276H5.7377C5.33028 12.8276 5 12.4571 5 12ZM5 17.1724C5 16.7154 5.33028 16.3448 5.7377 16.3448H19.2623C19.6697 16.3448 20 16.7154 20 17.1724C20 17.6295 19.6697 18 19.2623 18H5.7377C5.33028 18 5 17.6295 5 17.1724Z" fill="white"/>
<path fill-rule="evenodd" clip-rule="evenodd" d="M5 7.17241C5 6.5809 5.44419 6 6.11339 6H18.8866C19.5558 6 20 6.5809 20 7.17241C20 7.76392 19.5558 8.34483 18.8866 8.34483H6.11339C5.44419 8.34483 5 7.76392 5 7.17241ZM6.11339 6.8C6.01301 6.8 5.83333 6.91074 5.83333 7.17241C5.83333 7.43409 6.01301 7.54483 6.11339 7.54483H18.8866C18.987 7.54483 19.1667 7.43409 19.1667 7.17241C19.1667 6.91074 18.987 6.8 18.8866 6.8H6.11339ZM5 12C5 11.4085 5.44419 10.8276 6.11339 10.8276H18.8866C19.5558 10.8276 20 11.4085 20 12C20 12.5915 19.5558 13.1724 18.8866 13.1724H6.11339C5.44419 13.1724 5 12.5915 5 12ZM6.11339 11.6276C6.01301 11.6276 5.83333 11.7383 5.83333 12C5.83333 12.2617 6.01301 12.3724 6.11339 12.3724H18.8866C18.987 12.3724 19.1667 12.2617 19.1667 12C19.1667 11.7383 18.987 11.6276 18.8866 11.6276H6.11339ZM5 16.8276C5 16.2361 5.44419 15.6552 6.11339 15.6552H18.8866C19.5558 15.6552 20 16.2361 20 16.8276C20 17.4191 19.5558 18 18.8866 18H6.11339C5.44419 18 5 17.4191 5 16.8276ZM6.11339 16.4552C6.01301 16.4552 5.83333 16.5659 5.83333 16.8276C5.83333 17.0893 6.01301 17.2 6.11339 17.2H18.8866C18.987 17.2 19.1667 17.0893 19.1667 16.8276C19.1667 16.5659 18.987 16.4552 18.8866 16.4552H6.11339Z" fill="white"/>
</g>
<defs>
<clipPath id="clip0_1888_25694">
<rect width="24" height="24" fill="white"/>
</clipPath>
</defs>
</svg>
