<svg width="15" height="12" viewBox="0 0 15 12" fill="none" xmlns="http://www.w3.org/2000/svg">
<path fill-rule="evenodd" clip-rule="evenodd" d="M0 1.17241C0 0.580904 0.444192 0 1.11339 0H13.8866C14.5558 0 15 0.580904 15 1.17241C15 1.76392 14.5558 2.34483 13.8866 2.34483H1.11339C0.444192 2.34483 0 1.76392 0 1.17241ZM1.11339 0.8C1.01301 0.8 0.833333 0.910739 0.833333 1.17241C0.833333 1.43409 1.01301 1.54483 1.11339 1.54483H13.8866C13.987 1.54483 14.1667 1.43409 14.1667 1.17241C14.1667 0.910739 13.987 0.8 13.8866 0.8H1.11339ZM0 6C0 5.40849 0.444192 4.82759 1.11339 4.82759H13.8866C14.5558 4.82759 15 5.40849 15 6C15 6.59151 14.5558 7.17241 13.8866 7.17241H1.11339C0.444192 7.17241 0 6.59151 0 6ZM1.11339 5.62759C1.01301 5.62759 0.833333 5.73833 0.833333 6C0.833333 6.26167 1.01301 6.37241 1.11339 6.37241H13.8866C13.987 6.37241 14.1667 6.26167 14.1667 6C14.1667 5.73833 13.987 5.62759 13.8866 5.62759H1.11339ZM0 10.8276C0 10.2361 0.444192 9.65517 1.11339 9.65517H13.8866C14.5558 9.65517 15 10.2361 15 10.8276C15 11.4191 14.5558 12 13.8866 12H1.11339C0.444192 12 0 11.4191 0 10.8276ZM1.11339 10.4552C1.01301 10.4552 0.833333 10.5659 0.833333 10.8276C0.833333 11.0893 1.01301 11.2 1.11339 11.2H13.8866C13.987 11.2 14.1667 11.0893 14.1667 10.8276C14.1667 10.5659 13.987 10.4552 13.8866 10.4552H1.11339Z" fill="white"/>
</svg>
