<svg width="32" height="32" viewBox="0 0 32 32" fill="none" xmlns="http://www.w3.org/2000/svg">
<path fill-rule="evenodd" clip-rule="evenodd" d="M32 16C32 24.8366 24.8366 32 16 32C7.16344 32 0 24.8366 0 16C0 7.16344 7.16344 0 16 0C24.8366 0 32 7.16344 32 16ZM7.83673 12.7291C7.83673 2.72294 23.9085 2.72294 23.9085 12.7291V14.7311C23.9085 14.7311 20.0111 13.2272 16.5423 16.1986V9.40363C16.5423 8.06749 14.5333 8.06749 14.5333 9.40363V20.0927C14.5333 23.7827 11.5355 26.7734 7.83673 26.7734V12.7291ZM19.8451 16.359C18.5872 16.6846 16.5037 18.304 16.5037 18.5114V26.7319H23.8548V16.359C23.8548 16.359 21.5358 15.9218 19.8451 16.359Z" fill="#FDFDFA"/>
</svg>
